<svg xmlns="http://www.w3.org/2000/svg" xmlns:xlink="http://www.w3.org/1999/xlink" version="1.1" width="1080" height="1080" viewBox="0 0 1080 1080" xml:space="preserve">
<desc>Created with Fabric.js 3.5.0</desc>
<defs>
</defs>
<rect x="0" y="0" width="100%" height="100%" fill="#120101"/>
<g transform="matrix(51.6746 0 0 51.6746 540.0003 540.0003)" id="934654">
<path style="stroke: none; stroke-width: 1; stroke-dasharray: none; stroke-linecap: butt; stroke-dashoffset: 0; stroke-linejoin: miter; stroke-miterlimit: 4; is-custom-font: none; font-file-url: none; fill: rgb(255,255,255); fill-rule: evenodd; opacity: 1;" vector-effect="non-scaling-stroke" transform=" translate(-11.5, -12)" d="M 15.2957 2.50196 C 15.4081 2.49198 15.5205 2.52028 15.6148 2.58229 L 20.2748 5.64791 C 20.4154 5.74039 20.5 5.89736 20.5 6.06563 V 20.2832 C 20.5 20.5457 20.2969 20.7635 20.0351 20.782 L 9.83505 21.4988 C 9.6967 21.5085 9.56052 21.4603 9.45906 21.3657 C 9.35761 21.2712 9.3 21.1387 9.3 21 V 10.0088 C 9.3 9.75099 9.4961 9.53542 9.7528 9.51108 L 10.5928 9.43144 C 10.7876 9.41297 10.9752 9.5098 11.073 9.67924 L 15.4505 17.2628 L 15.62 17.2449 V 9.69027 C 15.62 9.41412 15.8439 9.19027 16.12 9.19027 C 16.3961 9.19027 16.62 9.41412 16.62 9.69027 V 17.6947 C 16.62 17.9504 16.427 18.165 16.1727 18.1919 L 15.2327 18.2915 C 15.0361 18.3123 14.8458 18.2154 14.747 18.0442 L 10.3675 10.4573 L 10.3 10.4637 V 20.4636 L 19.5 19.8171 V 6.33519 L 15.2107 3.51346 L 3.5 4.5544 V 16.9518 L 5.82 19.6512 V 7.10625 C 5.82 6.84565 6.02016 6.62874 6.27993 6.60786 L 16.0799 5.81992 C 16.3552 5.79779 16.5963 6.00299 16.6184 6.27825 C 16.6405 6.5535 16.4353 6.79458 16.1601 6.81671 L 6.82 7.56766 V 21 C 6.82 21.2091 6.68987 21.3961 6.49379 21.4688 C 6.29771 21.5415 6.07711 21.4845 5.94081 21.3259 L 2.62081 17.4631 C 2.54286 17.3724 2.5 17.2568 2.5 17.1372 V 4.09688 C 2.5 3.83789 2.69776 3.62177 2.95573 3.59884 L 15.2957 2.50196 Z" stroke-linecap="round"/>
</g>
</svg>